<?xml version="1.0" encoding="utf-8"?>
<!-- Generator: Adobe Illustrator 24.3.0, SVG Export Plug-In . SVG Version: 6.00 Build 0)  -->
<svg version="1.1" id="Layer_2_1_" xmlns="http://www.w3.org/2000/svg" xmlns:xlink="http://www.w3.org/1999/xlink" x="0px" y="0px"
	 viewBox="0 0 200 300" style="enable-background:new 0 0 200 300;" xml:space="preserve">
<style type="text/css">
	.st9{fill:#DECBBA;fill-opacity:0.15;stroke:#262626;stroke-miterlimit:10;}
	.st1{fill:#E89994;stroke:#262626;stroke-miterlimit:10;}
	.st5{fill:#EFAE38;stroke:#262626;stroke-miterlimit:10;}
	.st3{fill:#82A884;stroke:#262626;stroke-miterlimit:10;}
	.st4{fill:#262626;}
</style>
<path id="ca_x5F_outline" class="st9" d="M14.7,15.5c26.7,5.3,53.5,9.9,80.5,13.8c-2,25.7-6.3,52-12.3,77.1c6.9,7,17.4,16.3,23.6,24
	c19.8,24.6,31,36.9,49.5,55.4c11,11,20.8,23.2,29.3,36.3c1.2-0.1,1.4,2.2,1.3,3.4c-0.1,1.2-0.6,2.5,0,3.6c0.5,1,1.6,1.4,2.3,2.3
	c0.8,1.1,0.6,2.6,0.7,3.9c0.2,3.6,2.5,6.9,5.8,8.4c-3.1,2-6.1,4.1-9,6.2c1.6,4.9,0.7,10.6-2.3,14.8c-1.5,2.1-3.5,3.8-4.4,6.3
	c-0.9,2.4,0.1,5.8,2.6,6.2c0.5,0.1,0.9,0,1.4,0.1c2.3,0.5,2.4,4.2,0.6,5.7c-1.9,1.5-4.5,1.5-6.9,1.3c-16.5-0.9-33-1-49.5-0.3
	c0.1,0-0.4,0.3-0.3,0.3c0-0.1,0.4-0.3,0.4-0.4c0-2.7-3-4.8-5.3-6.2c3.3-3,1.5-8.4-0.5-12.3c-3.3-6.5-7.8-13.9-15.1-14.6
	c-1.8-0.2-4.1-0.1-5.1-1.6c-0.9-1.3-0.3-3.1-0.4-4.7c-0.2-3.1-3.9-5.4-6.8-4.3c-0.7,0.3-1.4,0.8-2.2,0.9c-2.6,0.4-3.9-2.9-5.1-5.2
	c-2.3-4.7-7.2-7.7-12.2-9S65,225.8,59.8,226c0.4-1.9-2.1-2.9-2.5-4.9c-0.3-1.3,0-2.7,0.3-4c0.7-2.9,1.5-5.9,1.5-8.9
	s-0.8-6.2-2.9-8.3c-0.8-0.8-1.7-1.4-2.4-2.2c-0.8-0.9-1.2-2-1.7-3.1c-1.6-3.2-4-5.9-6.1-8.7c-3.7-5.1-6.6-10.7-9.5-16.3
	c-0.8-1.5-0.6-3-0.3-4.7s1.1-3.4,2.6-4.3c0.5-0.3,1.1-0.5,1.5-0.9c0.6-0.6,0.9-1.4,0.9-2.3c0.1-3-2.5-5.3-5.1-6.8
	c-2.5-1.6-5.5-3-6.7-5.7c-0.7-1.6-0.8-3.4-0.7-5.2c0.1-2.2,0.2-4.5,0.5-6.7c2,0.1,3.6,1.6,4.5,3.4c0.9,1.8,1.3,3.9,2.6,5.4
	c1.3,1.6,3.9,2.4,5.3,1c-0.5-3.2-1.9-6.3-4.1-8.7c-0.9-0.9-1.9-1.8-2.5-3s-0.6-2.7,0.4-3.6c1.3-1.1,3.2-0.3,4.7,0.3
	c3.4,1.2,7.3,1.3,10.7,0.1c0.5-0.2,1.1-0.4,1.4-0.8c0.6-0.7,0.4-1.8,0.1-2.6c-0.5-1.6-1.7-3.3-3.4-3.3c-1.8,0-3,2-4.8,2
	c-1.9,0-3.1-2.1-4.9-2.7c-2.7-0.8-5.5,2.3-8.2,1.5c-1.2-0.4-2.4-1.5-3.6-1.2c0,2.1,0.1,4.2,0.1,6.2c-1.1,0.2-2.2,0-3.1-0.7
	c-1.1-7.2-3.4-14.9-7.6-20.9c-2.4-3.5-5.7-6.5-6.9-10.5c-0.6-2-0.6-4.1-0.4-6.1c0.2-2.7,0.5-5.3,1.1-8c1-4.8,1-10.4-1.6-15.1
	c-2.2-4-6.1-8.2-4.2-12.4c1.2-2.7,4.3-3.9,6.3-6c1.6-1.8,2.4-4.2,3-6.5C16,32.8,16.4,23.6,14.7,15.5z"/>
<circle id="madera_dot" class="st1" cx="79.9" cy="165.2" r="6.4" style="opacity: 0"/>
<circle id="gardena_dot" class="st5" cx="106.1" cy="246.2" r="6.4" style="opacity: 0"/>
<circle id="fremont_dot" class="st3" cx="42.4" cy="138.1" r="6.4" style="opacity: 0"/>
<path id="m2g_line" class="st9" d="M83.7,173.8c0,0,7.6,21,10.1,28c2.7,7.5,10.8,30,10.8,30" style="opacity: 0"/>
<polygon id="m2g_arrow" class="st4" points="101,232 106.3,236.5 107.6,229.6 " style="opacity: 0"/>
<path id="g2f_line" class="st9" d="M100.2,238.5c0,0-24.7-43.3-33-57.7c-4.4-7.6-17.4-30.6-17.4-30.6" style="opacity: 0"/>
<polygon id="g2f_arrow" class="st4" points="53.4,149.3 47.4,145.8 47.3,152.8 " style="opacity: 0"/>
</svg>
