<?xml version="1.0" encoding="utf-8"?>
<!-- Generator: Adobe Illustrator 24.3.0, SVG Export Plug-In . SVG Version: 6.00 Build 0)  -->
<svg version="1.1" id="Layer1" xmlns="http://www.w3.org/2000/svg" xmlns:xlink="http://www.w3.org/1999/xlink" x="0px" y="0px"
	 viewBox="0 0 2000 1200" style="enable-background:new 0 0 2000 1200;" xml:space="preserve">
<style type="text/css">
	.stA{fill:none;stroke:#D8284F;stroke-miterlimit:10;opacity:0}
	.st1{fill:#262626;stroke:#262626;stroke-miterlimit:10;opacity:0}
	.st2{fill:none;stroke:#262626;stroke-miterlimit:10;opacity:0}
</style>
<g id="large_x5F_us">
	<path class="stA" d="M1163.7,200.6c16.3,6.6,8,37.5,24.3,44.2c7.8,3.2,18.4-1.1,24.2,5.1c1.5,1.6,2.3,3.7,3.9,5.1
		c4,3.9,10.7,2.3,16,4.1c10.9,3.9,10.8,19.1,8.7,30.5c6.2-1.6,12.8-1.9,19.1-0.7c2.9,7.8-1.3,17.6-9,20.8c-6.1,2.5-15.4,3.4-15.5,10
		c0,2.7,1.9,5.3,1.5,8c-0.5,3.3-4.4,5-7.7,4.5c-3.3-0.6-5.9-2.8-8.4-5c-6.6,4.2-8.7,12.8-9,20.6c-0.3,7.8,0.5,15.9-2.6,23.1
		c-0.6,1.4-1.4,2.8-2.7,3.7c-4.5,3.1-10.4-2.6-11.2-8.1c-0.8-5.5,0.8-11.4-1.7-16.3c-3.1-0.8-5.9,2.4-6.9,5.4
		c-1,3.1-1.4,6.5-3.6,8.9c-3.8,3.9-11.2,1.5-13.6-3.4c-2.4-4.9-0.9-10.9,1.8-15.7c2.7-4.8,6.6-8.8,9.4-13.5c5-8.4,6.3-18.9,3.6-28.2
		c-1.2-4.2-4.4-8.9-8.7-8.2c-2.5,0.4-4.3,2.5-5.8,4.5c-14.8,18.7-30.4,39.7-29.3,63.5c0.4,8.3,2.8,16.3,4.7,24.4
		c4,16.7,5.7,34,5.2,51.2c-0.4,13.7-3.7,29.6-15.9,35.8c-7.6,3.9-16.7,2.8-25.2,1.3c-12.3-2.1-25.7-5.7-32.6-16.1
		c-4.4-6.6-5.3-14.8-5.2-22.7c0.3-17.3,5.5-34.6,14.9-49.1c7.6-11.7,17.8-21.9,23.3-34.7c-1.2-3.6-6.6-1.2-9,1.6
		c-10.7,12.2-21.4,24.4-32.2,36.6c-5.3-4.2-6.1-12.3-3.7-18.6s7.3-11.3,12.1-16.1c20.1-19.8,40.8-38.9,62-57.4
		c7.7-6.7,16.3-16.2,12.5-25.6c-9.2,1.9-17.6,7.3-23.1,14.9c-3.6,4.9-6,10.7-10.3,15c-8.4,8.3-21.6,8.9-33.5,8.9
		c8.8-12.8,17.7-25.7,26.5-38.5c0.8-1.1,1.6-2.4,1.5-3.8c-0.2-2.4-3.1-3.5-5.4-3.5c-10.9-0.1-17.3,11.5-23.6,20.3
		c-12.4,17.3-32.5,28.9-53.7,30.8c-5.5,0.5-11.3,0.3-16.2-2.2c-9-4.5-13.7-15.8-23.4-18.8c-9.8-3-23.7,2.8-28.8-6.1
		c-3.5-6.1,1.5-14.2,8.1-16.6c6.6-2.4,13.9-1,20.8-0.1c15.6,2.1,31.6,1.8,47.2-1.1c9.5-1.7,19.8-5.1,24.6-13.5c2.3-4,3-8.7,5.2-12.7
		c11.2-20.5,36.1-8.2,53-15.3C1135,225.6,1143.4,192.4,1163.7,200.6z"/>
	<path class="stA" d="M1122.3,230.6c-18.1-11.7-35.6-26.1-52-40.1c-2.6-2.2-5.2-4.4-7.8-6.6c-3.5-3-6.9-5.9-10.4-8.9
		c-89.1-10.1-179.6-21.6-269.3-23.5c-28.4-0.6-56.9-0.4-84.8-5.5c-15.1-2.7-29.9-7-45.1-9.2c-20.6-2.9-41.5-2-62.2-1
		c-56.6,2.8-114.4,6.3-169.2-8.2c-63.4-16.7-129.2-28.4-191.8-48c-2,6.7-3.9,13.5-5.9,20.2c3.2,2.5,5.9,5.6,8.1,9.1
		c2.9,4.8,4.4,11.5,0.6,15.7c-3.8,4.2-13,0.2-10.6-4.9c2.6,17.9,5.3,36,5.3,54.1c0,7.3-0.6,15.3-5.3,20.9s-14.9,7.1-19,1
		c-4.5-7.2,4.9-15.6,4.8-24.1c-0.1-3.7-2-7.1-2.7-10.8c-1.5-7.8,2.5-15.6,2.8-23.6c0.3-8-7.5-17.3-14.3-13.2c-2.8,1.7-4.1,5-5.2,8
		c-3.9,10.9-7.8,21.7-11.7,32.6c2.6,11.1-3.9,22.6-13.6,28.5c-2.5,1.5-5.4,2.8-6.5,5.5c-2,4.7,2.8,9.9,2.1,15
		c-1,6.6-10,8.1-14.8,12.8c-2.1,2.1-3.4,4.8-4.6,7.5c-7.1,15.9-12.3,32.6-15.4,49.7c-1.8,9.9-2.9,19.9-4,30
		c-2.4,22.1-4.8,44.2-7.2,66.3c-1.5,13.6-3,27.3-4.5,40.9c-1.2,11.3,3.6,24.7,6.4,35.8c1.3,5,4.1,11.2,9.2,10.6
		c3.6,9.9-0.7,22.1-9.7,27.6c-1.5,0.9-3.2,1.7-4.1,3.2c-3.2,5.5,6.9,10.3,7.2,16.6c0.1,1.9-0.7,3.9-0.2,5.7c1.9,6.3,14.2,1,17.1,6.9
		c-3.9,5.3-7.8,10.6-11.7,15.9c2.7,3.3,7.7,2.4,11.9,1.9c4.2-0.4,9.8,1.2,9.6,5.4c-0.2,6.6-12.9,4.7-15.2,10.9
		c-1.8,5.1,5.5,10.1,4,15.3c-0.9,3-4.3,4.4-6.9,6.2c-2.6,1.8-4.5,6-2,7.9c11.3,7,16.8,22.1,12.5,34.7c19.2,2.4,17.4,39.4,36.7,41.1
		c21.1,22.6,44.5,45.7,52.6,75.5c3.4,12.5,4.2,25.7,2.5,38.6c-0.4,3.4-0.8,7.4,1.7,9.7c1.5,1.3,3.5,1.6,5.4,1.8
		c40.2,5.2,80.4,10.3,120.6,15.5c-2.7,2-6.1,6-4.9,9.1c1.2,3.1,3.7,5.6,6.1,7.9c9.2,8.9,18.4,17.8,27.6,26.6
		c8.6,8.3,17.2,16.6,25.8,25c8.6,8.3,17.2,16.7,26.8,23.9c32.3-0.1,65.8,0.9,98.1,0.8c0.1-5.9,0.3-11.8,0.4-17.7
		c22.1,1.6,44.3,2.4,66.5,2.3c26,15,44.2,44.2,51.8,73.2c2.4,9.1,3.7,18.6,7.6,27.1c3.6,8,9.4,14.8,15,21.6
		c8.7,10.3,17.8,21,29.9,26.9c-2-15.6-2.4-31.4-1.3-47.1c1.3-18.7,6-39.1,21.5-49.7c13.7-9.4,31.8-8.2,48.3-6.5
		c36.1,3.9,75.5,10.4,99.3,37.9c8.1,9.4,15,21.5,27,24.7c3.2,0.8,6.7,1,9.3,3.1c4.7,3.7,3.7,10.9,6,16.4
		c4.1,9.6,17.7,12.3,21.7,21.9c1.6,3.9,1.4,8.3,3.3,12c2.2,4.4,6.9,6.8,11.1,9.4c7.1,4.4,13.6,10.2,17.1,17.8s3.5,17.1-1.5,23.8
		c2.4,5.3,7,9.5,12.5,11.2c12.9-3.9,22.2,13.6,35.1,17.3c7.5,2.2,16.1,0.3,22.7,4.5c3.1,2,5.7,5.3,9.4,5.6c5,0.3,8.3-5.1,9.7-9.9
		c10.2-35.7-21.6-74.5-9-109.4c3.3-9.1,9.4-17.1,11.4-26.5c0.9-4.2,0.9-8.6,2.4-12.6c3.4-9.3,13.9-15.1,15.9-24.8
		c0.9-4.1,0.1-8.5,1.7-12.4c2.8-6.9,11.3-9.2,18.7-10.5c10.4-1.8,21.6-3.5,31,1.4c5,2.6,9,7,13.9,9.9c4.9,2.9,11.8,3.8,15.9-0.1
		c3.5-7.1-0.2-16.7-7.4-19.8c-2.4-1-5.2-1.4-7.2-3.2c-3.7-3.4-2-9.9,1.9-13c4-3,9.2-3.5,14.2-3.8c25-1.7,50-3.4,75-5.1
		c20.1-1.4,40.2-3.1,60.3-3.6c4.3-0.1,8.8-0.2,12.7,1.7c5.7,2.8,8.9,9.3,9.3,15.7c0.4,6.4-1.4,12.6-3.2,18.7
		c5.8,0.5,11.6,1.1,17.4,1.6c-0.1-8.1,0.2-17.1,5.7-23c8.2-8.9,22.7-6,33.8-1.3c12.8,5.5,25.2,12.8,34,23.6
		c8.8,10.8,13.4,25.7,9.5,39.1c-1.1,3.9-2.9,7.6-3.7,11.5c-0.8,3.7-0.8,7.5-0.7,11.3c0.3,21,0.5,41.9,0.8,62.9c0.2,14,0.3,28,0.5,42
		c0,1.2,0.1,2.6,0.9,3.5c0.7,0.7,1.8,1,2.8,1.1c6.8,0.4,12.8-6.7,19.5-5.2c8.2,1.8,8.3,13.1,9.5,21.4c2.1,13.6,13.2,25.3,26.7,28
		c3.9,0.8,8.2,0.8,11.6-1.2c8.2-5,5.9-17.2,7.3-26.7c1.6-11.2,9.3-20.4,14.6-30.3c8.8-16.6,11.1-36.5,6.2-54.7
		c7-21.3-3.9-45.9-13.7-66c-7.6-15.6-15.2-31.2-22.9-46.9c-5.9-12.2-12-24.6-13.3-38.1c-1.3-13.6,2.2-27.2,6.4-40.2
		c11.6-36.3,28.5-70.9,49.8-102.5c11.1-16.4,25-31.1,44.1-36.3c9-2.4,18.6-2.1,27.8-3.5c14.6-2.2,28-8.8,41.5-14.6
		c18.3-7.8,37.2-14.4,56.4-19.6c10.2-2.8,21.8-6.1,26.7-15.5c4.3-8.3,1.3-19.4-6-25.3c3.7-2.3,8.3,1,11.9,3.5
		c3.6,2.5,9.8,3.8,11.4-0.3c1.7-4.2-3.9-7.5-8.2-8.6c-5.8-1.5-11.7-3.1-17.5-4.6c4.2-3.5,10-4.8,15.3-3.4c-0.3-5.7-8.2-6.4-13.6-8.2
		c-18.2-6-16.5-35.8-33.5-44.6c-4.8-2.5-12.1-5.7-9.9-10.7c-7.5,2.8-10.9,11.2-15.8,17.5c-4.9,6.3-15.6,10.5-20.2,4
		c-3.9-5.6,0.8-13.3,6.4-17.1c5.7-3.8,12.7-6.2,16.2-12.1c9.9-5.1,10.6-19.6,10.2-30.8c-0.7-19.1,2.9-38.4,10.5-56
		c0.7,23.5,1.8,48.2,13.8,68.5c2.9,4.8,6.3,9.4,8.8,14.4c2.2,4.5,3.7,9.4,5.1,14.3c2.5,8.5,4.9,16.9,7.4,25.4
		c0.9-17.1,24.9-26.3,24.8-43.4c0-5.8-2.9-11.2-3.7-16.9c-1.9-13.1,7.3-25,16-35.1c1.6-1.8,3.3-3.8,5.6-4.6c7.4-2.5,17.2,7.2,22,1.1
		c2.4-3,0.8-7.3,1.1-11.1c0.6-8.9,11.1-13.5,20-13.9c8.9-0.4,18.4,1.3,26.2-3.1c7.5-4.2,12.4-13.5,21-14.3c3-0.3,6.5,0.6,8.9-1.2
		c2.1-1.6,2.6-4.5,3-7.1c0.8-6.1,1.5-12.2,2.3-18.3c0.5-4.2-1.3-10.5-5.3-9.1c-1.2,14.8-20.3,24.8-33.2,17.3
		c-5.5-3.2-11.1-9.1-17.1-6.9c-0.4-21.6,2.2-43.3,7.6-64.3c1.7-6.6,4.6-11.3,10.8-14c6.2-2.7,13.1-3.4,19.7-5.2
		c12.6-3.4,24.1-11,32.3-21.3c3.8-4.8,7.4-10.4,13.2-12.2c7-2.1,16.4,1.5,20.7-4.4c1.2-1.6,1.6-3.5,1.9-5.5
		c2.8-17.5-6.2-36.4-21.7-45.1c-11.3-6.3-24.6-7.4-37.3-9.9c-12.7-2.5-26-7.5-32.7-18.6c-5.3-8.8-6.7-21.6-16.2-25.4
		c-2.7-1.1-5.8-1.3-8.2-3c-3.9-2.8-4.1-8.4-5.9-12.9c-5.5-13.8-26.7-17.5-29.4-32c-1.8-9.7-3.7-18.9-9.7-26.8
		c-4.2-5.5-12-8.2-14.5-14.7c-1.5-3.7-0.9-7.9-1.1-12s-2-8.6-5.9-9.6c-2.5-0.7-5.3,0.3-7.8-0.3c-6.4-1.4-8.3-11.3-14.8-12
		c-6.3-0.7-9.1,7.4-13.3,12.2c-5,5.8-14.5,7-20.8,2.7c-6.3-4.3-8.7-13.6-5.1-20.4c-3.6-3.5-10.1,0.6-11.2,5.6
		c-1.1,5,0.7,10.1,0.4,15.2c-0.6,15.9-19.4,25.2-23.7,40.5c-1.2,4.4-1.2,9.1-1.1,13.7c0.3,25,0.6,49.9,1,74.9
		c-11.7,10.7-23.9,19.1-35.6,29.8c-4.3,3.9-8.7,7.9-14.2,9.8c-4.7,1.6-9.7,1.5-14.6,1.5c-16.4-0.3-32.7-0.5-49.1-0.8
		c-8.3-0.1-16.8-0.2-24.5,2.6c-8.6,3.1-15.5,9.5-22.2,15.8c-18.1,16.9-38.8,35.9-56.9,52.8"/>
	<path class="stA" d="M1200.4,374.6c-0.8,7.6-2,18.7-2.9,26.2"/>
	<path class="stA" d="M1385,312.1c-15.5,2.7-32.3-2.3-46.8,4c-2.6,1.1-5.3,3.4-4.7,6.1c0.3,1.3,1.5,2.4,2,3.7
		c1.4,3.8-3.3,7.1-7.4,7.4c-4,0.3-8.6-0.4-11.7,2.2c-5.7,4.8-0.2,14.6-2.8,21.6c-2.9,7.6-13.9,8.8-18.1,15.7
		c-2.6,4.3-2,9.7-1.3,14.6c0.3,1.9,0.6,3.9,2,5.2c1.1,1,2.6,1.4,4.1,1.6c11.3,1.9,22.8-1.2,33.9-4.2c7.9-2.2,17-5.3,19.8-13.1
		c1.2-3.4,1.3-7.6,4.4-9.4c2.7-1.5,6.5-0.3,8.9-2.2c2-1.6,2.1-4.5,3.1-6.8c4.7-11.2,25.9-4.7,31.1-15.7c1.7-3.6,8.1-23.3,7.6-27.2
		C1407.2,304,1393.5,310.6,1385,312.1z"/>
	<path class="stA" d="M1308.9,394.8c0.1,4.8,0.1,8.9,0.2,13.7c4.3,1.2,8.8,1.7,13.3,1.5c2.9,4.2-1.7,11-6.7,9.9
		c1.5,2.2,1.3,5.3-0.5,7.3c-1.7,2-7,4.4-9.4,3.2"/>
	<path class="stA" d="M1197,400.2c-2.2-2.4-7.6-3.1-10.5-1.6c-2.9,1.5-4.6,5.1-3.9,8.2c0.3,1.5,1.1,2.9,1.4,4.4
		c1,4.9-3.4,9.6-2.7,14.6c0.5,4.1,4.3,7,7.9,9.1c0.9,0.5,2,1.1,3,0.9c1.2-0.2,2.1-1.3,2.8-2.3c3.7-5.3,7.6-10.7,8.8-17.1
		C1205,410,1202.5,404.8,1197,400.2z"/>
	<path class="stA" d="M1277.9,416.3c-5.1-1.8-11,4.8-15.4,1.8c-0.8-0.5-1.4-1.3-2.3-1.7c-4-1.6-4.9,6.2-8.7,8
		c-0.6-3.5-1.2-7-1.9-10.5c-10.9,5.2-21.7,10.4-32.6,15.6c-2.5,1.2-5.1,2.5-7.2,4.4c-3.6,3.3-5.2,8.2-8.4,11.9
		c-6.4,7.7-18.1,9.7-23.6,18c-1,1.5-1.8,3.2-1.7,5c0.1,3.5,3.3,6.3,6.7,7.1c3.4,0.8,6.9,0.2,10.4-0.5c5.6-1.1,11.2-2.2,16.8-3.3
		c2-0.4,4.1-0.8,5.7-2.2c1.3-1.2,2-2.9,3.1-4.1c3.3-3.5,8.9-2.7,13.7-2.1c21.1,2.9,42.3-3.3,62.8-9.4c8.1-2.4,15.8-18.7,9-26.2
		c-3.6-3.9-9.7-0.8-14.1-2.4C1284.7,423.7,1282.8,418.1,1277.9,416.3z"/>
	<path class="stA" d="M1191.3,435.8c-1.2,4.8-1.2,13.1-0.6,18"/>
</g>
<g id="small_x5F_us">
	<path id="map_x5F_filled" class="st2" d="M1267,521.2c10.5,7.9,18.6,19,23,31.5c0.9,2.7,1.7,5.4,3.3,7.7c3.1,4.5,8.8,6.4,12.7,10.2
		c4,3.7,5.3,11.7,0.2,13.8c-3.6,1.5-9.5-0.1-10.2,3.7c-0.2,1.2,0.4,2.4,0.1,3.5c-0.4,2-2.8,2.8-4.8,3.6c-4.2,1.7-7.7,5.6-7.9,10.1
		c-0.3,4.5,3.4,9.2,8,9.1c4.7-0.1,9.2-4.6,13.5-2.6c3.5,1.6,3.8,6.3,3.6,10.2c-0.3,5.8-2.1,13.2-7.8,13.6c-3.6,0.2-7.9-2.7-10.5-0.1
		c-1.1,1.1-1.3,2.8-2.4,3.9c-3.1,3.5-9.7-1-13.3,2c-2.5,2.1-1.6,6.1-1.2,9.3c0.3,3.3-1.9,7.7-5,6.5c1.7,4.1,1.2,8.9-1.2,12.6
		c-1.7-4.7-3.3-9.4-5-14c-0.5-1.3-0.9-2.6-1.4-3.9c-2.7-7.6-5.4-15.3-8.2-22.9c-4.8,0.6-5.4,7.4-4.1,12.1s2.5,10.9-1.7,13.4
		c-1.4,0.9-3.3,1-4.5,2.2c-1,1-1.3,2.5-1.5,4c-0.7,4.2-1.4,8.4-2.1,12.7c3.6-3.4,8.1-5.8,13-6.8c-1.1,3.8,1.9,8.3,5.8,8.7
		c1.7,0.2,3.5-0.3,5,0.5c1.3,0.7,2,2.1,2.6,3.4c1.7,3.6,3.2,8.5,0.2,11.2c-1.1,1-2.7,1.4-4.2,1.9c-6.9,2.1-13.2,6-18.2,11.2
		c-1.6,1.7-3.1,3.5-5,4.7c-2.6,1.6-5.7,1.9-8.7,2.6c-21.4,4.7-36.4,28.8-31.1,50.1c4.9,19.7,14.1,39.3,12,59.5
		c-0.4,3.9-1.2,7.9-3.7,10.9c-2.5,3-7,4.7-10.4,2.9c-4.3-2.2-4.8-8.1-7.7-11.9c-3.6-4.9-10.8-6.6-13.1-12.2
		c-1.2-2.7-0.9-5.8-0.5-8.8c0.8-7.6,1.6-15.2,2.4-22.8c0.3-3.1,0.6-6.5-0.8-9.3c-0.9-1.8-2.4-3.2-3.9-4.5
		c-11.3-9.4-26.6-13.1-41.3-12.1c-14.7,1-28.7,6.5-41.5,13.8c-4.4,2.5-9.4,6.8-8.1,11.7c2.3-1.7,5.3,2.1,4.1,4.7s-4.3,3.6-7,4.3
		c-2.7,0.7-5.8,1.7-7,4.3c-0.7,1.6-0.5,3.5-0.3,5.3c1.9,14.8,3.8,29.6,5.6,44.4c-7.3-4-14.4-8-21.8-12c-1.9-1-4-2.2-5.1-4.1
		c-2.3-4,0.5-9.6-2.1-13.4c-1.5-2.2-4.5-3-6.5-4.8c-2.3-2-3.2-5.1-4.3-7.9c-4.4-11.3-13.8-21.1-25.6-23.7
		c-11.8-2.6-25.7,3.6-29.6,15c-2,5.9-1.4,12.4-2.9,18.4c-1,3.8-4.3,7.9-7.9,6.6c-2.1-0.8-3.2-3.1-4.3-5.1
		c-4.4-7.6-12.4-12.3-19.5-17.4c-7.2-5.1-14.3-11.8-15.4-20.5c-0.3-2.3-0.1-4.8-1.3-6.9c-1.1-1.9-3.1-3-5-3.9
		c-5.7-2.8-12-5-18.4-4.7c-6.4,0.3-12.9,3.6-15.7,9.4c-2.2-0.8-4.9,0.3-7.2,0.3h-22.6c-0.6-5.2-5.8-9.9-10.8-11.3
		c-0.8-0.2-1.7-0.4-2.4-0.9c-0.9-0.6-1.3-1.7-1.9-2.6c-2.2-4-6.5-6.7-11-7.1c-1.5-5.4-2.4-10.9-2.7-16.5
		c-16.3-4.2-34.1-8.8-50.4-13.1c0.5-6.4,1-14.1,1.5-20.6c0.3-4.1,0.5-8.5-1.7-11.9c-1.3-1.9-3.2-3.3-4.4-5.2
		c-1.2-1.9-1.6-4.2-2.9-6.1c-1.9-2.8-5.3-4.2-8.1-6.2c-6.9-5-9.4-15.2-5.6-22.8c2.5-0.8,4.9-1.6,7.4-2.4c-0.3-1.4-1.4-2.6-2.7-3.1
		c0.3-2.4,0.6-4.8,0.9-7.2c-0.9-1.2-0.9-2.9-1.1-4.4c-0.5-3.4-2.6-6.5-5.6-8.1c-0.2-9.1-0.6-20.2-0.9-29.2
		c-0.3-12.2-0.4-25.2,6.2-35.4c1.3-2,2.8-4.1,2.5-6.4c-0.3-1.9-1.9-3.5-2.1-5.5c-0.2-1.6,0.6-3.2,1.4-4.6
		c3.8-6.9,7.5-13.7,11.3-20.6c1.6,4.6,3.2,9.2,4.8,13.8c1.2,3.3,3,7.1,6.5,7.4c5.7-5.4-4.7-14.7-2.2-22.1c1.2-3.6,5.1-5.5,8.6-7
		c15.7,11.3,35.6,16.7,54.9,14.9c64-5.9,127.9,3.2,192.2,2.7c10.9,7.9,21.1,15.4,32,23.3c-4.5-0.4-9-0.7-13.5-1.1
		c-1.2-0.1-2.4-0.2-3.4,0.4c-2.5,1.3-2.5,5.4-5.1,6.3c-2.1,0.7-4.1-1.2-6.3-1.5c-2.9-0.4-5.5,1.9-6.7,4.6c-1.2,2.7-1.5,5.6-2.5,8.4
		c-4.1,11.3-18.1,14.7-29.8,17.2c-2.5,0.5-5.1,1.1-7.1,2.8c-2,1.6-3.1,4.6-1.8,6.8c2.4,4,8.4,1.6,12.4-0.9
		c5.7-3.6,14.5-5.7,18.2-0.1c1.6,2.4,1.7,5.5,3.3,7.8c2,3,6.2,3.9,9.7,3.1c3.5-0.8,6.5-3.1,9.1-5.6c6-5.6,10.8-12.3,14.1-19.8
		c1.4-3.1,2.6-6.4,4.7-9c2.2-2.6,5.7-4.5,9-3.5c-6,9.4-11.5,19.1-16.3,29.1c2.8,2.3,6.8-0.7,9.2-3.6c7.7-9.5,15.5-19.1,23.2-28.6
		c4.4,0.9,5.7,7.1,3.6,11.1c-2.1,4-6.3,6.3-9.8,9.2c-4.5,3.6-8.3,8.3-10.9,13.5c-0.9,1.8-1.7,4.1-0.6,5.9c1.5,2.5,5.6,1.7,7.4-0.5
		s2.4-5.2,3.4-7.9c2.5-6.5,8.7-11.3,15.6-12.2c-8.5,11.3-14.5,24.5-17.4,38.4c-1.7,8.2-2.3,17,1,24.7s11.7,13.6,19.9,12
		c2-0.4,3.9-1.2,5.4-2.6c3.5-3.1,4.2-8.4,3.2-12.9c-1-4.6-3.5-8.6-5.5-12.8c-3.7-7.6-6.3-16.2-5.2-24.6c1.1-8.4,6.4-16.7,14.5-19.4
		c3.7-1.2,8.8-0.6,10,3.1c0.8,2.5-0.6,5.3,0.3,7.7c0.7,1.9,2.7,3.1,3.6,5c1.4,2.9-0.1,6.3-1.5,9.1c-3.2,6.1-6.4,12.3-9.6,18.4
		c10.3,3.8,21.9,3.7,32.1-0.2c-0.9-4.6,5.3-7.1,9.9-6.8c4.6,0.3,10.2,1.2,13.1-2.3c0.3-5.8-4.6-10.5-9.1-14.2
		c-2.5-2.1-5-4.2-7.6-6.2c2.5-2.4,6.6-0.9,9.9,0.3c9.2,3.5,19.5,4.1,29.1,1.8c1.4-0.3,2.8-0.8,3.7-1.9c0.9-1.1,1-2.7,1.2-4.1
		c1.6-14.2,15-26,29.2-25.9c3.5,0,7.2,0.7,10.3-0.8c6.5-3.1,6.3-12.3,4.8-19.4c-0.4-1.9-0.8-3.8-0.4-5.7c0.4-1.7,1.5-3.2,2.6-4.7
		C1255.9,530.4,1263.2,526.4,1267,521.2z"/>
	<path id="_x3C_Path_x3E__2_" class="st2" d="M1075.3,548.1c3.6-2.5,4.1-8.1,4.3-12.4c0.2-4.3,1.3-9.5,5.4-11
		c3.8-1.4,7.7,1.3,10.6,4.1c2.9,2.7,6.1,5.9,10.1,5.8c2.4-0.1,5.2-1.3,7,0.3c0.7,0.6,1.1,1.6,1.6,2.4c4.5,7.1,17.7,0.8,23.2,7.2
		c2.5,2.9,2.7,7.9,6.2,9.4c2,0.9,4.8,0.5,5.8,2.5c1.1,2.1-1.2,4.3-3.3,5.2c-2.2,0.9-4.8,1.6-5.6,3.8c-0.6,1.8,0.3,3.9-0.6,5.6
		c-1.1,1.9-3.9,2-5.4,3.6c-2.8,3.2-0.2,9.8-4.2,11.1"/>
	<path id="_x3C_Path_x3E__1_" class="st2" d="M1165.3,594.8c3.9-2.3,7.4-10.1,11.8-10.9c1.8-0.3,3.6,0.5,5.4,0.3
		c2.3-0.2,4.1-2,6.2-2.7c2.3-0.8,4.8-0.5,7.2-0.1c3.6,0.5,8.7,0.9,12.3,1.4"/>
	<path id="_x3C_Path_x3E_" class="st2" d="M1171.2,604c-5.1,1-8,9.6-12.9,11.2c-3.2,1-6.5-1.2-9.9-1.6c-5.9-0.7-14.1,3.5-18.9,0.1"
		/>
</g>
</svg>
